<svg width="308" height="363" viewBox="0 0 308 363" fill="none" xmlns="http://www.w3.org/2000/svg">
    <g clip-path="url(#clip0_24_18)">
    <path d="M279.434 20.4622H26.4058V342.64H279.434V20.4622Z" fill="#F9FCFF"/>
    <path d="M308 9.09975H2.41589C2.18049 6.06787 1.94096 3.03189 1.70557 0H306.831C307.219 3.03189 307.612 6.06787 308 9.09975V9.09975Z" fill="#FFC67C"/>
    <path d="M308 9.09976H2.41602V14.7298H308V9.09976Z" fill="#FFA856"/>
    <path d="M307.083 20.3599C205.209 20.3435 103.34 20.3272 1.46606 20.3149C1.77993 18.4532 2.09792 16.5915 2.41179 14.7339H308C307.694 16.612 307.389 18.4859 307.083 20.364V20.3599Z" fill="#FF941C"/>
    <path d="M1.7056 0L0 8.86653C0.0165192 10.9001 0.0330383 12.9336 0.0454277 14.963C0.520354 16.747 0.99115 18.5268 1.46608 20.3108C1.77994 18.4491 2.09794 16.5874 2.4118 14.7298V9.09975C2.1764 6.06787 1.93687 3.03189 1.70147 0L1.7056 0Z" fill="#E28000"/>
    <path d="M308 351.74H2.41589C2.18049 348.708 1.94096 345.672 1.70557 342.64H306.831C307.219 345.672 307.612 348.708 308 351.74V351.74Z" fill="#FFC67C"/>
    <path d="M308 351.74H2.41602V357.37H308V351.74Z" fill="#FFA856"/>
    <path d="M307.083 363C205.209 362.984 103.34 362.967 1.46606 362.955C1.77993 361.093 2.09792 359.232 2.41179 357.374H308C307.694 359.252 307.389 361.126 307.083 363.004V363Z" fill="#FF941C"/>
    <path d="M1.7056 342.64L0 351.507C0.0165192 353.54 0.0330383 355.574 0.0454277 357.603C0.520354 359.387 0.99115 361.167 1.46608 362.951C1.77994 361.089 2.09794 359.228 2.4118 357.37V351.74C2.1764 348.708 1.93687 345.672 1.70147 342.64H1.7056Z" fill="#E28000"/>
    <path d="M279.434 20.3599H26.4058V26.0841H279.434V20.3599Z" fill="#BACCC4"/>
    </g>
    <defs>
    <clipPath id="clip0_24_18">
    <rect width="308" height="363" fill="white"/>
    </clipPath>
    </defs>
    </svg>
    